
<svg width="108px" height="21px" viewBox="0 0 108 21" version="1.1" xmlns="http://www.w3.org/2000/svg" xmlns:xlink="http://www.w3.org/1999/xlink">
    <!-- Generator: Sketch 49.3 (51167) - http://www.bohemiancoding.com/sketch -->
    <desc>Created with Sketch.</desc>
    <defs>
        <polygon id="path-1" points="0 18.5762846 54.8544741 18.5762846 54.8544741 0.144227668 0 0.144227668"></polygon>
    </defs>
    <g id="首页" stroke="none" stroke-width="1" fill="none" fill-rule="evenodd">
        <g id="dashbord4-18" transform="translate(-27.000000, -14.000000)">
            <g id="Group" transform="translate(27.000000, 14.000000)">
                <g id="Group-3-Copy-7" fill="#FFFFFF">
                    <g id="Group-Copy-2">
                        <path d="M11.9076639,4.3875 L13.0600185,4.3875 C14.3328742,4.3875 15.3647276,5.36967533 15.3647276,6.58125 L15.3647276,18.28125 C15.3647276,19.4928247 14.3328742,20.475 13.0600185,20.475 L4.60941828,20.475 L4.60941828,17.184375 L8.45060018,17.184375 C10.3598838,17.184375 11.9076639,15.711112 11.9076639,13.89375 L11.9076639,4.3875 Z" id="Combined-Shape-Copy" fill-opacity="0.5"></path>
                        <path d="M0,0 L8.45060018,0 C9.7234559,-2.22562656e-16 10.7553093,0.98217533 10.7553093,2.19375 L10.7553093,13.89375 C10.7553093,15.1053247 9.7234559,16.0875 8.45060018,16.0875 L0,16.0875 L0,0 Z" id="Rectangle-3-Copy-35"></path>
                    </g>
                </g>
                <g id="Group-3-Copy-7" transform="translate(23.000000, 0.000000)">
                    <g id="Page-1" transform="translate(0.771134, 0.000000)">
                        <polygon id="Fill-1" fill="#FFFFFF" points="40.4293784 3.6430644 53.2130838 3.6430644 53.2130838 1.96761301 40.4293784 1.96761301"></polygon>
                        <g id="Group-16" transform="translate(0.000000, 0.204410)">
                            <path d="M54.8544741,8.87979273 L54.8544741,7.20434134 L38.7859077,7.20434134 L38.7859077,8.87979273 L43.2607247,8.87979273 L39.0272275,17.8657342 L51.6153806,17.8657342 C52.4683211,17.8657342 53.2671727,17.5310623 53.8683917,16.9265611 C54.4696107,16.3220599 54.8003852,15.5146639 54.8003852,14.6591587 L54.7962245,12.5967429 L53.1298701,12.6009263 L53.1340308,14.6633421 C53.1361111,15.0712236 52.9780051,15.4560963 52.6909178,15.7426591 C52.4038305,16.0334054 52.0231278,16.1902828 51.6153806,16.1902828 L41.6547002,16.1902828 L45.1018279,8.87979273 L54.8544741,8.87979273 Z" id="Fill-2" fill="#FFFFFF"></path>
                            <polygon id="Fill-4" fill="#FFFFFF" points="9.35509271 7.18635273 9.35509271 8.20710213 7.27058941 8.20710213 7.27058941 9.56879858 9.35509271 9.56879858 9.35509271 10.8385598 10.7073154 10.8385598 10.7073154 9.56879858 12.7918187 9.56879858 12.7918187 8.20710213 10.7073154 8.20710213 10.7073154 7.18635273"></polygon>
                            <mask id="mask-2" fill="white">
                                <use xlink:href="#path-1"></use>
                            </mask>
                            <g id="Clip-7"></g>
                            <path d="M8.72703727,13.6691573 L11.3357869,13.6691573 L11.3357869,12.0564569 L8.72703727,12.0564569 L8.72703727,13.6691573 Z M12.7920267,13.8427684 L12.7920267,10.5922672 L7.27079744,10.5922672 L7.27079744,15.133347 L11.5084554,15.133347 C12.2178522,15.133347 12.7920267,14.5560379 12.7920267,13.8427684 Z" id="Fill-6" fill="#FFFFFF" mask="url(#mask-2)"></path>
                            <polygon id="Fill-8" fill="#FFFFFF" mask="url(#mask-2)" points="0.245480429 0.986764269 1.31477653 4.05528759 2.88751555 3.50307889 1.81821945 0.434555573"></polygon>
                            <path d="M11.7828525,4.90870103 L8.27955558,4.90870103 L7.4266151,3.43823621 L12.635793,3.43823621 L11.7828525,4.90870103 Z M10.6365838,0.145901028 L8.8516498,0.150084427 L9.41750299,1.76278482 L3.80265827,1.76278482 L3.80265827,3.43823621 L5.73945724,3.43823621 L6.59239772,4.90870103 L3.80265827,4.90870103 L3.80265827,18.5758662 L5.4690127,18.5758662 L5.4690127,6.58415241 L14.5933954,6.58415241 L14.5933954,15.3734742 C14.5933954,16.2164291 13.911043,16.9004149 13.072665,16.9004149 L11.58522,16.9004149 L11.58522,18.5758662 L13.072665,18.5758662 C14.8284741,18.5758662 16.2576695,17.1388686 16.2576695,15.3734742 L16.2576695,4.90870103 L13.4720907,4.90870103 L14.3250312,3.43823621 L16.2576695,3.43823621 L16.2576695,1.76278482 L11.1857942,1.76278482 L10.6365838,0.145901028 Z" id="Fill-9" fill="#FFFFFF" mask="url(#mask-2)"></path>
                            <polygon id="Fill-10" fill="#FFFFFF" mask="url(#mask-2)" points="0.089038664 5.2437913 1.10008518 8.25583874 -0.000416068523 18.3231889 1.65345631 18.5030751 2.79556441 8.07386087 1.66593837 4.70831621"></polygon>
                            <polygon id="Fill-11" fill="#FFFFFF" mask="url(#mask-2)" points="28.732444 7.18635273 28.732444 8.20710213 26.6479407 8.20710213 26.6479407 9.56879858 28.732444 9.56879858 28.732444 10.8385598 30.0846667 10.8385598 30.0846667 9.56879858 32.16917 9.56879858 32.16917 8.20710213 30.0846667 8.20710213 30.0846667 7.18635273"></polygon>
                            <path d="M28.1033484,13.6691573 L30.712098,13.6691573 L30.712098,12.0564569 L28.1033484,12.0564569 L28.1033484,13.6691573 Z M32.1683379,13.8427684 L32.1683379,10.5922672 L26.6450282,10.5922672 L26.6450282,15.133347 L30.8847665,15.133347 C31.592083,15.133347 32.1683379,14.5560379 32.1683379,13.8427684 Z" id="Fill-12" fill="#FFFFFF" mask="url(#mask-2)"></path>
                            <polygon id="Fill-13" fill="#FFFFFF" mask="url(#mask-2)" points="19.6228317 0.986764269 20.6921278 4.05528759 22.2648668 3.50307889 21.1955707 0.434555573"></polygon>
                            <path d="M31.1602038,4.90870103 L27.6569069,4.90870103 L26.8039664,3.43823621 L32.011064,3.43823621 L31.1602038,4.90870103 Z M30.0118547,0.145901028 L28.2269208,0.150084427 L28.7948543,1.76278482 L23.1800096,1.76278482 L23.1800096,3.43823621 L25.1168085,3.43823621 L25.9676687,4.90870103 L23.1800096,4.90870103 L23.1800096,18.5758662 L24.846364,18.5758662 L24.846364,6.58415241 L33.9707467,6.58415241 L33.9707467,15.3734742 C33.9707467,16.2164291 33.2883943,16.9004149 32.4500163,16.9004149 L30.9625713,16.9004149 L30.9625713,18.5758662 L32.4500163,18.5758662 C34.2058254,18.5758662 35.6350208,17.1388686 35.6350208,15.3734742 L35.6350208,4.90870103 L32.849442,4.90870103 L33.7003022,3.43823621 L35.6350208,3.43823621 L35.6350208,1.76278482 L30.5631455,1.76278482 L30.0118547,0.145901028 Z" id="Fill-14" fill="#FFFFFF" mask="url(#mask-2)"></path>
                            <polygon id="Fill-15" fill="#FFFFFF" mask="url(#mask-2)" points="19.46639 5.2437913 20.4774365 8.25583874 19.3769352 18.3231889 21.0308076 18.5030751 22.1729157 8.07386087 21.0432897 4.70831621"></polygon>
                        </g>
                    </g>
                    <path d="M67.9427708,3.48864865 L70.0455396,3.48864865 L70.0455396,17.3827027 L68.4053799,17.3827027 L68.4053799,7.8627027 L65.9661681,17.3183784 L64.5783406,17.3183784 L62.1391288,7.8627027 L62.1391288,17.3827027 L60.4989691,17.3827027 L60.4989691,3.48864865 L62.6017379,3.48864865 L65.293282,14.2951351 L67.9427708,3.48864865 Z M72.9071841,17.3827027 L72.9071841,3.48864865 L74.6314546,3.48864865 L74.6314546,17.3827027 L72.9071841,17.3827027 Z M77.3669329,14.8097297 L77.3669329,12.687027 C78.404304,14.9598312 79.6238978,16.074775 81.0257507,16.0318919 C82.3715295,15.9890088 83.0584271,15.2385658 83.0864642,13.7805405 C83.0584271,12.4940476 82.4135844,11.7007222 81.1519168,11.4005405 C78.6285816,10.8430603 77.4510428,9.42793929 77.6192652,7.15513514 C77.7033763,4.71079859 78.8248418,3.44576619 80.9836953,3.36 C83.0584376,3.4028831 84.2780313,4.81800408 84.6425131,7.60540541 L82.960298,7.60540541 C82.6518904,5.97584771 82.0070477,5.13963985 81.0257507,5.09675676 C79.9323054,5.09675676 79.385591,5.76143479 79.385591,7.09081081 C79.3295169,8.24865444 79.9463229,8.97765616 81.2360276,9.27783784 C83.6752516,9.9210843 84.8948454,11.3576465 84.8948454,13.5875676 C84.8668083,16.2892027 83.6612329,17.64 81.2780829,17.64 C79.5397853,17.64 78.2360817,16.696586 77.3669329,14.8097297 Z" id="MIS系统" fill="#FFFFFF"></path>
                </g>
            </g>
        </g>
    </g>
</svg>